<svg xmlns="http://www.w3.org/2000/svg" fill="none" viewBox="0 0 21.997105 21.45516" id="Github-Logo-2--Streamline-Logos" height="256" width="256" version="1.1" preserveAspectRatio="none">
  <defs id="defs9" />
  <desc id="desc2">
    Github Logo 2 Streamline Icon: https://streamlinehq.com
  </desc>
  <path stroke="#000000" stroke-linecap="round" stroke-linejoin="round" d="M 10.997139,0.50000721 A 10.486,10.486 0 0 0 7.6831393,20.938007 c 0.523,0.092 0.69,-0.216 0.69,-0.493 0,-0.25 0.005,-0.945 0,-1.824 -2.919,0.633 -3.522,-1.381 -3.522,-1.381 a 2.775,2.775 0 0 0 -1.163,-1.534 c -0.952,-0.65 0.071,-0.638 0.071,-0.638 a 2.201,2.201 0 0 1 1.607,1.08 2.232,2.232 0 0 0 3.05,0.871 c 0.05,-0.53 0.285,-1.025 0.666,-1.397 -2.328,-0.266 -4.776,-1.165 -4.776,-5.184 a 4.055,4.055 0 0 1 1.08,-2.8149998 3.762,3.762 0 0 1 0.103,-2.774 c 0,0 0.882,-0.282 2.883,1.076 a 9.924,9.924 0 0 1 5.2519997,0 c 2.007,-1.357 2.881,-1.076 2.881,-1.076 0.387,0.878 0.424,1.87 0.104,2.774 a 4.05,4.05 0 0 1 1.079,2.8159998 c 0,4.03 -2.452,4.916 -4.789,5.174 a 2.487,2.487 0 0 1 0.718,1.933 v 2.904 c 0,0.28 0.17,0.59 0.702,0.488 a 10.487,10.487 0 0 0 -3.322,-20.43799979 z" stroke-width="1" id="path4" />
</svg>